<?xml version="1.0" standalone="no"?>
<!DOCTYPE svg PUBLIC "-//W3C//DTD SVG 20010904//EN"
 "http://www.w3.org/TR/2001/REC-SVG-20010904/DTD/svg10.dtd">
<svg version="1.0" xmlns="http://www.w3.org/2000/svg"
 width="123.239110pt" height="130.503601pt" viewBox="0 0 123.239110 130.503601"
 preserveAspectRatio="xMidYMid meet">
<metadata>
Created by potrace 1.12, written by Peter Selinger 2001-2015
</metadata>
<g transform="translate(-35.000000,172.500000) scale(0.100000,-0.100000)"
fill="#000000" stroke="none">
<path d="M720 1485 c0 -137 5 -256 11 -278 14 -52 64 -106 124 -133 81 -38 84
-36 87 54 2 60 6 77 18 77 12 0 16 -17 18 -77 3 -85 4 -85 65 -64 54 20 104
61 127 106 18 36 20 59 20 291 l0 251 -35 -31 c-100 -87 -333 -78 -412 17
l-23 27 0 -240z m198 85 c17 -11 32 -27 32 -37 0 -12 8 -8 28 17 23 27 36 34
65 34 100 0 121 -140 25 -169 -13 -4 -42 -26 -65 -48 l-43 -41 -42 41 c-24 22
-56 45 -73 50 -19 6 -37 23 -49 45 -17 31 -18 39 -6 68 8 19 26 38 44 46 41
18 46 17 84 -6z"/>
<path d="M872 1508 c-28 -28 -1 -75 37 -63 27 8 32 29 15 54 -17 24 -34 27
-52 9z"/>
<path d="M998 1509 c-33 -19 -15 -69 24 -69 15 0 38 27 38 44 0 7 -31 36 -38
36 -4 0 -15 -5 -24 -11z"/>
<path d="M542 983 c-52 -26 -77 -69 -77 -135 0 -69 22 -103 85 -135 44 -23 49
-23 460 -23 454 0 460 1 446 53 -5 23 -12 27 -41 27 -55 0 -81 57 -55 124 7
19 17 25 46 28 44 4 65 28 48 56 -10 16 -44 17 -445 19 -383 2 -438 1 -467
-14z m753 -139 l0 -75 -208 3 c-206 3 -209 3 -228 27 -26 32 -24 67 6 96 24
25 25 25 227 25 l203 0 0 -76z"/>
<path d="M350 510 c0 -83 1 -90 20 -90 18 0 20 7 20 63 l1 62 35 -62 c24 -43
42 -63 55 -63 17 0 19 8 19 90 0 73 -3 90 -15 90 -12 0 -15 -13 -15 -55 0 -30
-3 -55 -7 -55 -5 0 -21 25 -38 55 -22 42 -35 55 -52 55 -22 0 -23 -3 -23 -90z"/>
<path d="M970 510 c0 -73 3 -90 15 -90 12 0 15 17 15 90 0 73 -3 90 -15 90
-12 0 -15 -17 -15 -90z"/>
<path d="M1110 510 c0 -73 3 -90 15 -90 12 0 15 17 15 90 0 73 -3 90 -15 90
-12 0 -15 -17 -15 -90z"/>
<path d="M1260 570 c0 -26 -3 -29 -17 -22 -37 19 -73 -13 -73 -64 0 -46 21
-63 80 -62 l50 0 0 89 c0 82 -1 89 -20 89 -16 0 -20 -7 -20 -30z m-2 -89 c-2
-18 -10 -27 -25 -29 -23 -3 -29 9 -23 48 6 43 53 24 48 -19z"/>
<path d="M553 545 c-27 -19 -37 -59 -22 -88 16 -30 28 -37 66 -37 60 0 83 70
38 115 -28 29 -51 31 -82 10z m62 -55 c0 -31 -3 -35 -25 -35 -29 0 -40 36 -19
61 21 26 44 12 44 -26z"/>
<path d="M860 553 c-40 -14 -55 -87 -24 -117 18 -18 56 -21 85 -6 32 18 21 31
-22 28 -27 -2 -43 2 -46 10 -3 8 9 12 41 12 38 0 46 3 46 18 0 37 -44 67 -80
55z m38 -41 c2 -7 -7 -12 -23 -12 -24 0 -26 2 -15 15 14 17 31 16 38 -3z"/>
<path d="M1360 553 c-40 -14 -55 -87 -24 -117 18 -18 56 -21 85 -6 32 18 21
31 -22 28 -27 -2 -43 2 -46 10 -3 8 9 12 41 12 38 0 46 3 46 18 0 37 -44 67
-80 55z m38 -41 c2 -7 -7 -12 -23 -12 -24 0 -26 2 -15 15 14 17 31 16 38 -3z"/>
<path d="M1494 550 c-28 -11 -39 -40 -16 -40 10 0 23 5 30 12 9 9 15 9 24 0 9
-9 7 -13 -8 -17 -58 -19 -65 -25 -62 -53 3 -26 6 -27 62 -29 l58 -2 -4 56 c-6
73 -31 95 -84 73z m46 -84 c0 -18 -31 -29 -44 -16 -8 8 -7 14 4 20 22 14 40
12 40 -4z"/>
<path d="M680 542 c0 -6 10 -35 21 -66 29 -76 50 -75 79 4 13 34 20 63 17 67
-14 13 -36 -8 -43 -41 -8 -46 -18 -46 -30 1 -5 23 -16 39 -26 41 -10 2 -18 -1
-18 -6z"/>
</g>
</svg>
