<?xml version="1.0" standalone="no"?>
<!DOCTYPE svg PUBLIC "-//W3C//DTD SVG 20010904//EN"
 "http://www.w3.org/TR/2001/REC-SVG-20010904/DTD/svg10.dtd">
<svg version="1.0" xmlns="http://www.w3.org/2000/svg"
 width="99.473672pt" height="103.500000pt" viewBox="0 0 99.473672 103.500000"
 preserveAspectRatio="xMidYMid meet">
<metadata>
Created by potrace 1.12, written by Peter Selinger 2001-2015
</metadata>
<g transform="translate(-14.500000,115.500000) scale(0.100000,-0.100000)"
fill="#000000" stroke="none">
<path d="M400 915 c0 -137 5 -256 11 -278 14 -52 64 -106 124 -133 81 -38 84
-36 87 54 2 60 6 77 18 77 12 0 16 -17 18 -77 3 -85 4 -85 65 -64 54 20 104
61 127 106 18 36 20 59 20 291 l0 251 -35 -31 c-100 -87 -333 -78 -412 17
l-23 27 0 -240z m198 85 c17 -11 32 -27 32 -37 0 -12 8 -8 28 17 23 27 36 34
65 34 100 0 121 -140 25 -169 -13 -4 -42 -26 -65 -48 l-43 -41 -42 41 c-24 22
-56 45 -73 50 -19 6 -37 23 -49 45 -17 31 -18 39 -6 68 8 19 26 38 44 46 41
18 46 17 84 -6z"/>
<path d="M552 938 c-28 -28 -1 -75 37 -63 27 8 32 29 15 54 -17 24 -34 27 -52
9z"/>
<path d="M678 939 c-33 -19 -15 -69 24 -69 15 0 38 27 38 44 0 7 -31 36 -38
36 -4 0 -15 -5 -24 -11z"/>
<path d="M222 413 c-52 -26 -77 -69 -77 -135 0 -69 22 -103 85 -136 44 -22 49
-22 460 -22 454 0 460 1 446 53 -5 23 -12 27 -41 27 -55 0 -81 57 -55 124 7
19 17 25 46 28 44 4 65 28 48 56 -10 16 -44 17 -445 19 -383 2 -438 1 -467
-14z m753 -139 l0 -75 -208 3 c-206 3 -209 3 -228 27 -26 32 -24 67 6 96 24
25 25 25 227 25 l203 0 0 -76z"/>
</g>
</svg>
